<svg width="29" height="29" viewBox="0 0 29 29" fill="none" xmlns="http://www.w3.org/2000/svg">
<rect x="0.794922" y="0.411621" width="27.7464" height="27.7464" fill="#AABE78"/>
<path d="M19.9433 19.2828C19.3448 19.7979 18.7019 20.0558 18.0147 20.0566C17.1614 20.0566 16.2041 19.7687 15.1428 19.1928C14.0669 18.6066 13.0746 17.8785 12.1926 17.0281C11.2892 16.1602 10.5033 15.1778 9.85486 14.106C9.19328 13.0181 8.8099 12.0106 8.7047 11.0833C8.61431 10.396 8.60691 9.92846 8.68249 9.68066C8.75808 9.43286 9.0125 9.10753 9.44576 8.70467C10.0434 8.09218 10.6041 7.81555 11.1277 7.87478C11.2678 7.88508 11.4044 7.92315 11.5297 7.98676C11.6549 8.05038 11.7662 8.13826 11.8571 8.2453C12.0137 8.44635 12.2078 8.88467 12.4287 9.55676L12.9675 11.1499L12.2487 11.8898L11.5088 12.6531L12.3597 14.0054C12.7493 14.6195 13.3217 15.2475 14.0768 15.8896C14.8319 16.5317 15.3738 16.8532 15.7027 16.8539C15.8967 16.8539 16.2033 16.6673 16.6225 16.2941C16.9066 16.0241 17.1532 15.8826 17.3624 15.8674C17.5717 15.8522 18.0205 15.9352 18.7078 16.1141C19.6803 16.3689 20.2787 16.5707 20.5032 16.7195C20.7276 16.8684 20.8398 17.1676 20.8398 17.6172C20.8406 18.2118 20.5417 18.767 19.9433 19.2828Z" fill="white"/>
</svg>
