<svg width="86" height="85" viewBox="0 0 86 85" fill="none" xmlns="http://www.w3.org/2000/svg">
<rect width="86" height="85" fill="#DFDFDF"/>
<g clip-path="url(#clip0_32_605)">
<rect width="1920" height="1394" transform="translate(-1072 -1140)" fill="white"/>
<rect x="0.667969" width="85" height="85" fill="#6E8255"/>
<path d="M68.8067 22.0988C68.7684 21.9115 68.6823 21.7372 68.5568 21.5928C68.4313 21.4485 68.2707 21.3391 68.0905 21.2751C67.4116 21.1435 66.71 21.193 66.0563 21.4184C66.0563 21.4184 20.8761 37.6626 18.2905 39.4604C17.739 39.8472 17.5742 40.0763 17.4596 40.3342C17.0156 41.6162 18.4051 42.1821 18.4051 42.1821L30.0511 45.9781C30.244 46.0252 30.4454 46.0252 30.6384 45.9781C33.2885 44.3021 57.2896 29.1466 58.6791 28.6381C58.894 28.5736 59.0587 28.638 59.0157 28.7956C58.4571 30.7438 37.6074 49.2729 37.6074 49.2729C37.5566 49.3395 37.5134 49.4115 37.4785 49.4877L36.3969 61.0406C36.3969 61.0406 35.9385 64.5788 39.4768 61.0406C41.9764 58.541 44.3902 56.4496 45.6006 55.4397C49.6044 58.2044 53.9161 61.2627 55.7712 62.8599C56.0847 63.1612 56.4553 63.3969 56.8612 63.5531C57.2671 63.7093 57.7001 63.7829 58.1348 63.7695C59.8967 63.7051 60.3909 61.764 60.3909 61.764C60.3909 61.764 68.6276 28.6238 68.8998 24.1831C68.8998 23.7533 68.9643 23.4668 68.9643 23.1732C68.9685 22.809 68.9153 22.4464 68.8067 22.0988Z" fill="white"/>
</g>
<defs>
<clipPath id="clip0_32_605">
<rect width="1920" height="1394" fill="white" transform="translate(-1072 -1140)"/>
</clipPath>
</defs>
</svg>
