<svg width="58" height="58" viewBox="0 0 58 58" fill="none" xmlns="http://www.w3.org/2000/svg">
<rect width="58" height="58" fill="#DFDFDF"/>
<g clip-path="url(#clip0_32_605)">
<rect width="1920" height="1394" transform="translate(-935 -930)" fill="white"/>
<rect x="0.417969" y="0.625488" width="56.7463" height="56.7463" fill="#AABE78"/>
<path d="M28.7917 13.9074C33.7038 13.9074 34.2837 13.9291 36.2225 14.0156C37.3898 14.0298 38.5462 14.2435 39.6415 14.6475C40.4378 14.9458 41.1589 15.4157 41.7534 16.0237C42.3643 16.6176 42.8346 17.3407 43.1296 18.14C43.5355 19.2333 43.7492 20.3885 43.7615 21.5546C43.8524 23.4934 43.8697 24.0777 43.8697 28.9897C43.8697 33.9017 43.8697 34.4816 43.7615 36.4205C43.7492 37.5866 43.5355 38.7418 43.1296 39.8351C42.8238 40.6282 42.3554 41.3486 41.7547 41.9501C41.154 42.5515 40.4342 43.0207 39.6415 43.3276C38.5462 43.7316 37.3898 43.9453 36.2225 43.9594C34.2837 44.046 33.7038 44.0676 28.7917 44.0676C23.8797 44.0676 23.2998 44.046 21.361 43.9594C20.1936 43.9453 19.0373 43.7316 17.942 43.3276C17.1493 43.0207 16.4295 42.5515 15.8288 41.9501C15.2281 41.3486 14.7597 40.6282 14.4539 39.8351C14.048 38.7418 13.8343 37.5866 13.822 36.4205C13.7311 34.4816 13.7138 33.8974 13.7138 28.9897C13.7138 24.082 13.7138 23.4934 13.822 21.5546C13.8343 20.3885 14.048 19.2333 14.4539 18.14C14.7489 17.3407 15.2191 16.6176 15.8301 16.0237C16.4246 15.4157 17.1457 14.9458 17.942 14.6475C19.0373 14.2435 20.1936 14.0298 21.361 14.0156C23.2998 13.9291 23.8797 13.9074 28.7917 13.9074ZM28.7917 10.5967C23.7975 10.5967 23.1656 10.5967 21.2095 10.7049C19.6826 10.7392 18.1725 11.0319 16.7432 11.5704C15.5209 12.0422 14.4109 12.7646 13.4844 13.691C12.558 14.6175 11.8356 15.7275 11.3638 16.9498C10.8236 18.3771 10.5309 19.8861 10.4983 21.4118C10.4074 23.3766 10.3857 24.0084 10.3857 28.9983C10.3857 33.9883 10.3857 34.6244 10.4983 36.5806C10.5316 38.1076 10.8243 39.6179 11.3638 41.0468C11.8366 42.2681 12.5593 43.377 13.4857 44.3027C14.4121 45.2283 15.5216 45.9501 16.7432 46.4219C18.1719 46.9626 19.6823 47.2553 21.2095 47.2875C23.17 47.3784 23.8062 47.4 28.7917 47.4C33.7773 47.4 34.4179 47.3784 36.374 47.2875C37.9012 47.2553 39.4116 46.9626 40.8403 46.4219C42.0619 45.9501 43.1714 45.2283 44.0978 44.3027C45.0242 43.377 45.7469 42.2681 46.2197 41.0468C46.7592 39.6179 47.0519 38.1076 47.0852 36.5806C47.1761 34.6201 47.1978 33.9839 47.1978 28.9983C47.1978 24.0128 47.1978 23.3722 47.0852 21.4118C47.0526 19.8861 46.7599 18.3771 46.2197 16.9498C45.7479 15.7275 45.0255 14.6175 44.0991 13.691C43.1726 12.7646 42.0626 12.0422 40.8403 11.5704C39.411 11.0319 37.9009 10.7392 36.374 10.7049C34.4135 10.614 33.7773 10.5967 28.7917 10.5967Z" fill="white"/>
<path d="M28.7917 19.5422C26.923 19.5414 25.096 20.0947 23.5418 21.1323C21.9876 22.1699 20.776 23.6451 20.0602 25.3713C19.3445 27.0976 19.1568 28.9973 19.5209 30.8302C19.8849 32.6631 20.7843 34.3469 22.1054 35.6686C23.4265 36.9903 25.1099 37.8905 26.9426 38.2554C28.7754 38.6203 30.6752 38.4335 32.4018 37.7185C34.1283 37.0036 35.6041 35.7927 36.6424 34.239C37.6807 32.6852 38.2349 30.8585 38.2349 28.9898C38.2354 27.7493 37.9916 26.5209 37.5173 25.3747C37.043 24.2285 36.3475 23.187 35.4706 22.3096C34.5936 21.4323 33.5524 20.7363 32.4064 20.2615C31.2605 19.7866 30.0321 19.5422 28.7917 19.5422ZM28.7917 35.1222C27.5786 35.1222 26.3928 34.7624 25.3842 34.0884C24.3757 33.4144 23.5896 32.4563 23.1256 31.3355C22.6616 30.2147 22.5404 28.9815 22.7774 27.7918C23.0144 26.6021 23.5989 25.5094 24.4569 24.6519C25.315 23.7945 26.4081 23.2107 27.598 22.9746C28.7878 22.7385 30.021 22.8605 31.1415 23.3254C32.262 23.7902 33.2194 24.5769 33.8927 25.5859C34.5661 26.5949 34.925 27.781 34.9241 28.9941C34.9218 30.619 34.2747 32.1766 33.1249 33.3248C31.9751 34.473 30.4166 35.1179 28.7917 35.1179V35.1222Z" fill="white"/>
<path d="M38.6114 21.377C39.8304 21.377 40.8186 20.3888 40.8186 19.1698C40.8186 17.9508 39.8304 16.9626 38.6114 16.9626C37.3925 16.9626 36.4043 17.9508 36.4043 19.1698C36.4043 20.3888 37.3925 21.377 38.6114 21.377Z" fill="white"/>
<path d="M28.7917 13.9074C33.7038 13.9074 34.2837 13.9291 36.2225 14.0156C37.3898 14.0298 38.5462 14.2435 39.6415 14.6475C40.4378 14.9458 41.1589 15.4157 41.7534 16.0237C42.3643 16.6176 42.8346 17.3407 43.1296 18.14C43.5355 19.2333 43.7492 20.3885 43.7615 21.5546C43.8524 23.4934 43.8697 24.0777 43.8697 28.9897C43.8697 33.9017 43.8697 34.4816 43.7615 36.4205C43.7492 37.5866 43.5355 38.7418 43.1296 39.8351C42.8238 40.6282 42.3554 41.3486 41.7547 41.9501C41.154 42.5515 40.4342 43.0207 39.6415 43.3276C38.5462 43.7316 37.3898 43.9453 36.2225 43.9594C34.2837 44.046 33.7038 44.0676 28.7917 44.0676C23.8797 44.0676 23.2998 44.046 21.361 43.9594C20.1936 43.9453 19.0373 43.7316 17.942 43.3276C17.1493 43.0207 16.4295 42.5515 15.8288 41.9501C15.2281 41.3486 14.7597 40.6282 14.4539 39.8351C14.048 38.7418 13.8343 37.5866 13.822 36.4205C13.7311 34.4816 13.7138 33.8974 13.7138 28.9897C13.7138 24.082 13.7138 23.4934 13.822 21.5546C13.8343 20.3885 14.048 19.2333 14.4539 18.14C14.7489 17.3407 15.2191 16.6176 15.8301 16.0237C16.4246 15.4157 17.1457 14.9458 17.942 14.6475C19.0373 14.2435 20.1936 14.0298 21.361 14.0156C23.2998 13.9291 23.8797 13.9074 28.7917 13.9074ZM28.7917 10.5967C23.7975 10.5967 23.1656 10.5967 21.2095 10.7049C19.6826 10.7392 18.1725 11.0319 16.7432 11.5704C15.5209 12.0422 14.4109 12.7646 13.4844 13.691C12.558 14.6175 11.8356 15.7275 11.3638 16.9498C10.8236 18.3771 10.5309 19.8861 10.4983 21.4118C10.4074 23.3766 10.3857 24.0084 10.3857 28.9983C10.3857 33.9883 10.3857 34.6244 10.4983 36.5806C10.5316 38.1076 10.8243 39.6179 11.3638 41.0468C11.8366 42.2681 12.5593 43.377 13.4857 44.3027C14.4121 45.2283 15.5216 45.9501 16.7432 46.4219C18.1719 46.9626 19.6823 47.2553 21.2095 47.2875C23.17 47.3784 23.8062 47.4 28.7917 47.4C33.7773 47.4 34.4179 47.3784 36.374 47.2875C37.9012 47.2553 39.4116 46.9626 40.8403 46.4219C42.0619 45.9501 43.1714 45.2283 44.0978 44.3027C45.0242 43.377 45.7469 42.2681 46.2197 41.0468C46.7592 39.6179 47.0519 38.1076 47.0852 36.5806C47.1761 34.6201 47.1978 33.9839 47.1978 28.9983C47.1978 24.0128 47.1978 23.3722 47.0852 21.4118C47.0526 19.8861 46.7599 18.3771 46.2197 16.9498C45.7479 15.7275 45.0255 14.6175 44.0991 13.691C43.1726 12.7646 42.0626 12.0422 40.8403 11.5704C39.411 11.0319 37.9009 10.7392 36.374 10.7049C34.4135 10.614 33.7773 10.5967 28.7917 10.5967Z" fill="white"/>
<path d="M28.7917 19.5422C26.923 19.5414 25.096 20.0947 23.5418 21.1323C21.9876 22.1699 20.776 23.6451 20.0602 25.3713C19.3445 27.0976 19.1568 28.9973 19.5209 30.8302C19.8849 32.6631 20.7843 34.3469 22.1054 35.6686C23.4265 36.9903 25.1099 37.8905 26.9426 38.2554C28.7754 38.6203 30.6752 38.4335 32.4018 37.7185C34.1283 37.0036 35.6041 35.7927 36.6424 34.239C37.6807 32.6852 38.2349 30.8585 38.2349 28.9898C38.2354 27.7493 37.9916 26.5209 37.5173 25.3747C37.043 24.2285 36.3475 23.187 35.4706 22.3096C34.5936 21.4323 33.5524 20.7363 32.4064 20.2615C31.2605 19.7866 30.0321 19.5422 28.7917 19.5422ZM28.7917 35.1222C27.5786 35.1222 26.3928 34.7624 25.3842 34.0884C24.3757 33.4144 23.5896 32.4563 23.1256 31.3355C22.6616 30.2147 22.5404 28.9815 22.7774 27.7918C23.0144 26.6021 23.5989 25.5094 24.4569 24.6519C25.315 23.7945 26.4081 23.2107 27.598 22.9746C28.7878 22.7385 30.021 22.8605 31.1415 23.3254C32.262 23.7902 33.2194 24.5769 33.8927 25.5859C34.5661 26.5949 34.925 27.781 34.9241 28.9941C34.9218 30.619 34.2747 32.1766 33.1249 33.3248C31.9751 34.473 30.4166 35.1179 28.7917 35.1179V35.1222Z" fill="white"/>
<path d="M38.6114 21.377C39.8304 21.377 40.8186 20.3888 40.8186 19.1698C40.8186 17.9508 39.8304 16.9626 38.6114 16.9626C37.3925 16.9626 36.4043 17.9508 36.4043 19.1698C36.4043 20.3888 37.3925 21.377 38.6114 21.377Z" fill="white"/>
</g>
<defs>
<clipPath id="clip0_32_605">
<rect width="1920" height="1394" fill="white" transform="translate(-935 -930)"/>
</clipPath>
</defs>
</svg>
