<svg width="86" height="85" viewBox="0 0 86 85" fill="none" xmlns="http://www.w3.org/2000/svg">
<rect width="86" height="85" fill="#DFDFDF"/>
<g clip-path="url(#clip0_32_605)">
<rect width="1920" height="1394" transform="translate(-935 -1140)" fill="white"/>
<rect x="0.417969" width="85.0004" height="85.0004" fill="#6E8255"/>
<path d="M42.919 19.8952C50.2767 19.8952 51.1454 19.9276 54.0495 20.0573C55.7981 20.0785 57.5302 20.3986 59.1708 21.0037C60.3637 21.4506 61.4437 22.1544 62.3343 23.0652C63.2494 23.9547 63.9538 25.0379 64.3957 26.2351C65.0036 27.8728 65.3238 29.6032 65.3422 31.3499C65.4783 34.2541 65.5043 35.1292 65.5043 42.4869C65.5043 49.8447 65.5043 50.7133 65.3422 53.6175C65.3238 55.3642 65.0036 57.0946 64.3957 58.7322C63.9376 59.9203 63.2361 60.9994 62.3363 61.9003C61.4365 62.8012 60.3582 63.504 59.1708 63.9637C57.5302 64.5688 55.7981 64.8889 54.0495 64.9101C51.1454 65.0398 50.2767 65.0722 42.919 65.0722C35.5613 65.0722 34.6926 65.0398 31.7884 64.9101C30.0399 64.8889 28.3078 64.5688 26.6672 63.9637C25.4798 63.504 24.4015 62.8012 23.5017 61.9003C22.6019 60.9994 21.9004 59.9203 21.4423 58.7322C20.8344 57.0946 20.5142 55.3642 20.4958 53.6175C20.3597 50.7133 20.3337 49.8382 20.3337 42.4869C20.3337 35.1357 20.3337 34.2541 20.4958 31.3499C20.5142 29.6032 20.8344 27.8728 21.4423 26.2351C21.8842 25.0379 22.5886 23.9547 23.5037 23.0652C24.3943 22.1544 25.4743 21.4506 26.6672 21.0037C28.3078 20.3986 30.0399 20.0785 31.7884 20.0573C34.6926 19.9276 35.5613 19.8952 42.919 19.8952ZM42.919 14.936C35.4381 14.936 34.4917 14.936 31.5615 15.0981C29.2743 15.1495 27.0124 15.5879 24.8715 16.3946C23.0406 17.1013 21.3779 18.1833 19.9902 19.5711C18.6024 20.9588 17.5204 22.6216 16.8137 24.4524C16.0046 26.5903 15.5661 28.8506 15.5172 31.136C15.3811 34.0791 15.3486 35.0255 15.3486 42.4999C15.3486 49.9743 15.3486 50.9272 15.5172 53.8573C15.5671 56.1447 16.0055 58.4069 16.8137 60.5474C17.5219 62.3766 18.6045 64.0378 19.9921 65.4243C21.3797 66.8107 23.0417 67.892 24.8715 68.5987C27.0115 69.4086 29.274 69.8471 31.5615 69.8952C34.4981 70.0314 35.4511 70.0638 42.919 70.0638C50.3869 70.0638 51.3463 70.0314 54.2765 69.8952C56.564 69.8471 58.8265 69.4086 60.9665 68.5987C62.7963 67.892 64.4583 66.8107 65.8459 65.4243C67.2335 64.0378 68.3161 62.3766 69.0243 60.5474C69.8325 58.4069 70.2709 56.1447 70.3208 53.8573C70.4569 50.9207 70.4894 49.9678 70.4894 42.4999C70.4894 35.032 70.4894 34.0726 70.3208 31.136C70.2719 28.8506 69.8334 26.5903 69.0243 24.4524C68.3176 22.6216 67.2356 20.9588 65.8478 19.5711C64.4601 18.1833 62.7974 17.1013 60.9665 16.3946C58.8256 15.5879 56.5637 15.1495 54.2765 15.0981C51.3399 14.962 50.3869 14.936 42.919 14.936Z" fill="white"/>
<path d="M42.9187 28.3357C40.1195 28.3344 37.3828 29.1633 35.0548 30.7175C32.7268 32.2717 30.9119 34.4814 29.8398 37.0671C28.7677 39.6528 28.4866 42.4984 29.0319 45.244C29.5772 47.9895 30.9244 50.5117 32.9033 52.4914C34.8821 54.4712 37.4037 55.8196 40.149 56.3662C42.8943 56.9127 45.74 56.6329 48.3262 55.562C50.9124 54.4911 53.1229 52.6773 54.6782 50.3499C56.2335 48.0226 57.0636 45.2863 57.0636 42.4871C57.0645 40.6291 56.6992 38.789 55.9888 37.0721C55.2783 35.3552 54.2365 33.7951 52.923 32.481C51.6094 31.1668 50.0498 30.1243 48.3332 29.413C46.6166 28.7018 44.7768 28.3357 42.9187 28.3357ZM42.9187 51.6729C41.1016 51.6729 39.3254 51.134 37.8146 50.1244C36.3039 49.1148 35.1265 47.6797 34.4315 46.0009C33.7364 44.322 33.5549 42.4747 33.9099 40.6927C34.2648 38.9106 35.1403 37.2739 36.4256 35.9895C37.7109 34.7051 39.3483 33.8308 41.1306 33.4771C42.9129 33.1234 44.76 33.3062 46.4384 34.0024C48.1168 34.6987 49.551 35.877 50.5595 37.3885C51.5681 38.8999 52.1057 40.6766 52.1045 42.4936C52.101 44.9276 51.1317 47.2607 49.4094 48.9806C47.6871 50.7004 45.3526 51.6664 42.9187 51.6664V51.6729Z" fill="white"/>
<path d="M57.6284 31.0841C59.4543 31.0841 60.9344 29.6039 60.9344 27.778C60.9344 25.9521 59.4543 24.4719 57.6284 24.4719C55.8024 24.4719 54.3223 25.9521 54.3223 27.778C54.3223 29.6039 55.8024 31.0841 57.6284 31.0841Z" fill="white"/>
<path d="M42.919 19.8952C50.2767 19.8952 51.1454 19.9276 54.0495 20.0573C55.7981 20.0785 57.5302 20.3986 59.1708 21.0037C60.3637 21.4506 61.4437 22.1544 62.3343 23.0652C63.2494 23.9547 63.9538 25.0379 64.3957 26.2351C65.0036 27.8728 65.3238 29.6032 65.3422 31.3499C65.4783 34.2541 65.5043 35.1292 65.5043 42.4869C65.5043 49.8447 65.5043 50.7133 65.3422 53.6175C65.3238 55.3642 65.0036 57.0946 64.3957 58.7322C63.9376 59.9203 63.2361 60.9994 62.3363 61.9003C61.4365 62.8012 60.3582 63.504 59.1708 63.9637C57.5302 64.5688 55.7981 64.8889 54.0495 64.9101C51.1454 65.0398 50.2767 65.0722 42.919 65.0722C35.5613 65.0722 34.6926 65.0398 31.7884 64.9101C30.0399 64.8889 28.3078 64.5688 26.6672 63.9637C25.4798 63.504 24.4015 62.8012 23.5017 61.9003C22.6019 60.9994 21.9004 59.9203 21.4423 58.7322C20.8344 57.0946 20.5142 55.3642 20.4958 53.6175C20.3597 50.7133 20.3337 49.8382 20.3337 42.4869C20.3337 35.1357 20.3337 34.2541 20.4958 31.3499C20.5142 29.6032 20.8344 27.8728 21.4423 26.2351C21.8842 25.0379 22.5886 23.9547 23.5037 23.0652C24.3943 22.1544 25.4743 21.4506 26.6672 21.0037C28.3078 20.3986 30.0399 20.0785 31.7884 20.0573C34.6926 19.9276 35.5613 19.8952 42.919 19.8952ZM42.919 14.936C35.4381 14.936 34.4917 14.936 31.5615 15.0981C29.2743 15.1495 27.0124 15.5879 24.8715 16.3946C23.0406 17.1013 21.3779 18.1833 19.9902 19.5711C18.6024 20.9588 17.5204 22.6216 16.8137 24.4524C16.0046 26.5903 15.5661 28.8506 15.5172 31.136C15.3811 34.0791 15.3486 35.0255 15.3486 42.4999C15.3486 49.9743 15.3486 50.9272 15.5172 53.8573C15.5671 56.1447 16.0055 58.4069 16.8137 60.5474C17.5219 62.3766 18.6045 64.0378 19.9921 65.4243C21.3797 66.8107 23.0417 67.892 24.8715 68.5987C27.0115 69.4086 29.274 69.8471 31.5615 69.8952C34.4981 70.0314 35.4511 70.0638 42.919 70.0638C50.3869 70.0638 51.3463 70.0314 54.2765 69.8952C56.564 69.8471 58.8265 69.4086 60.9665 68.5987C62.7963 67.892 64.4583 66.8107 65.8459 65.4243C67.2335 64.0378 68.3161 62.3766 69.0243 60.5474C69.8325 58.4069 70.2709 56.1447 70.3208 53.8573C70.4569 50.9207 70.4894 49.9678 70.4894 42.4999C70.4894 35.032 70.4894 34.0726 70.3208 31.136C70.2719 28.8506 69.8334 26.5903 69.0243 24.4524C68.3176 22.6216 67.2356 20.9588 65.8478 19.5711C64.4601 18.1833 62.7974 17.1013 60.9665 16.3946C58.8256 15.5879 56.5637 15.1495 54.2765 15.0981C51.3399 14.962 50.3869 14.936 42.919 14.936Z" fill="white"/>
<path d="M42.9187 28.3357C40.1195 28.3344 37.3828 29.1633 35.0548 30.7175C32.7268 32.2717 30.9119 34.4814 29.8398 37.0671C28.7677 39.6528 28.4866 42.4984 29.0319 45.244C29.5772 47.9895 30.9244 50.5117 32.9033 52.4914C34.8821 54.4712 37.4037 55.8196 40.149 56.3662C42.8943 56.9127 45.74 56.6329 48.3262 55.562C50.9124 54.4911 53.1229 52.6773 54.6782 50.3499C56.2335 48.0226 57.0636 45.2863 57.0636 42.4871C57.0645 40.6291 56.6992 38.789 55.9888 37.0721C55.2783 35.3552 54.2365 33.7951 52.923 32.481C51.6094 31.1668 50.0498 30.1243 48.3332 29.413C46.6166 28.7018 44.7768 28.3357 42.9187 28.3357ZM42.9187 51.6729C41.1016 51.6729 39.3254 51.134 37.8146 50.1244C36.3039 49.1148 35.1265 47.6797 34.4315 46.0009C33.7364 44.322 33.5549 42.4747 33.9099 40.6927C34.2648 38.9106 35.1403 37.2739 36.4256 35.9895C37.7109 34.7051 39.3483 33.8308 41.1306 33.4771C42.9129 33.1234 44.76 33.3062 46.4384 34.0024C48.1168 34.6987 49.551 35.877 50.5595 37.3885C51.5681 38.8999 52.1057 40.6766 52.1045 42.4936C52.101 44.9276 51.1317 47.2607 49.4094 48.9806C47.6871 50.7004 45.3526 51.6664 42.9187 51.6664V51.6729Z" fill="white"/>
<path d="M57.6284 31.0841C59.4543 31.0841 60.9344 29.6039 60.9344 27.778C60.9344 25.9521 59.4543 24.4719 57.6284 24.4719C55.8024 24.4719 54.3223 25.9521 54.3223 27.778C54.3223 29.6039 55.8024 31.0841 57.6284 31.0841Z" fill="white"/>
</g>
<defs>
<clipPath id="clip0_32_605">
<rect width="1920" height="1394" fill="white" transform="translate(-935 -1140)"/>
</clipPath>
</defs>
</svg>
