<svg width="86" height="85" viewBox="0 0 86 85" fill="none" xmlns="http://www.w3.org/2000/svg">
<rect width="86" height="85" fill="#DFDFDF"/>
<g clip-path="url(#clip0_32_605)">
<rect width="1920" height="1394" transform="translate(-1209 -1140)" fill="white"/>
<rect x="0.918945" width="85" height="85" fill="#6E8255"/>
<path d="M69.7315 29.2585C69.4187 28.0875 68.8027 27.0197 67.9456 26.1627C67.0886 25.3056 66.0207 24.6896 64.8498 24.3767C60.5904 23.2783 43.4189 23.2783 43.4189 23.2783C43.4189 23.2783 26.2473 23.2783 21.9635 24.4255C20.7926 24.7384 19.7248 25.3544 18.8677 26.2115C18.0107 27.0685 17.3947 28.1363 17.0818 29.3073C15.9346 33.5788 15.9346 42.5247 15.9346 42.5247C15.9346 42.5247 15.9346 51.4644 17.0818 55.7481C17.3976 56.9143 18.0151 57.9767 18.8721 58.8283C19.7291 59.68 20.7954 60.2908 21.9635 60.5994C26.2473 61.7222 43.4189 61.7222 43.4189 61.7222C43.4189 61.7222 60.5904 61.7222 64.8742 60.575C66.0423 60.2664 67.1086 59.6556 67.9656 58.8039C68.8226 57.9523 69.4401 56.8899 69.7559 55.7237C70.9031 51.4522 70.9031 42.5002 70.9031 42.5002C70.9031 42.5002 70.8787 33.5422 69.7315 29.2585ZM37.9269 50.7382V34.2623L52.1938 42.5002L37.9269 50.7382Z" fill="white"/>
</g>
<defs>
<clipPath id="clip0_32_605">
<rect width="1920" height="1394" fill="white" transform="translate(-1209 -1140)"/>
</clipPath>
</defs>
</svg>
