<svg width="74" height="38" viewBox="0 0 74 38" fill="none" xmlns="http://www.w3.org/2000/svg">
<path d="M65.9115 18.4914L44.2543 17.9543L56.0324 16.1895L65.9115 18.4914Z" fill="#6E8255"/>
<path d="M49.8939 31.7276L36.255 33.9144L43.3142 30.8452L49.8939 31.7276Z" fill="#002832"/>
<path d="M59.3321 29.4061L53.3855 29.7514L55.2654 27.9099C55.3229 27.8523 55.4189 27.8332 55.4956 27.8715" fill="#51604C"/>
<path d="M51.1218 24.6301L54.6514 25.3015L49.0309 25.7619L50.9108 24.6301C50.9683 24.6109 51.0451 24.6109 51.1218 24.6301Z" fill="#6E8255"/>
<path d="M73.9492 11.5666L34.6055 12.1229L59.1785 6.98193L73.9492 11.5666Z" fill="#6E8255"/>
<path d="M58.8332 21.4458L55.0926 23.5559L42.7006 23.0955L58.8332 21.4458Z" fill="#3D4C3D"/>
<path d="M56.3585 4.71831L20.0457 14.8468L27.7571 0.287109L56.3585 4.71831Z" fill="#AABE78"/>
<path d="M57.3176 14.4629L29.2342 18.357L20.0457 14.8465L57.3176 14.4629Z" fill="#6E8255"/>
<path d="M54.6322 26.9126L51.1601 30.1353L36.6388 28.3897L54.6322 26.9126Z" fill="#002832"/>
<path d="M54.2677 20.3328L26.4336 23.613L29.2343 18.3569L54.2677 20.3328Z" fill="#51604C"/>
<path d="M47.9949 25.263L25.9348 27.7759L26.4336 23.6133L47.9949 25.263Z" fill="#002832"/>
<path d="M40.7822 30.7109L21.753 37.7126L16.2667 30.5767L40.7822 30.7109Z" fill="#002832"/>
<path d="M40.7822 30.7108L16.2667 30.5766L25.9348 27.7759L40.7822 30.7108Z" fill="#6E8255"/>
<path d="M29.2347 18.3569L26.434 23.613L15.6533 22.884L29.2347 18.3569Z" fill="#3D4C3D"/>
<path d="M29.2347 18.3571L15.6533 22.8842L20.0462 14.8467L29.2347 18.3571Z" fill="#51604C"/>
<path d="M27.7576 0.287109L20.0461 14.8468L17.2838 0.747494L27.7576 0.287109Z" fill="#6E8255"/>
<path d="M25.9348 27.7759L16.2667 30.5766L26.4335 23.6133L25.9348 27.7759Z" fill="#3D4C3D"/>
<path d="M26.434 23.6137L16.2672 30.577V30.5578L15.6533 22.8848L26.434 23.6137Z" fill="#51604C"/>
<path d="M17.2835 0.747559L20.0458 14.8468L11.7013 13.1588L17.2835 0.747559Z" fill="#51604C"/>
<path d="M20.0461 14.8467L15.6533 22.8842L4.25879 18.3571L20.0461 14.8467Z" fill="#6E8255"/>
<path d="M20.0461 14.8468L4.25879 18.3573L9.24629 14.022L20.0461 14.8468Z" fill="#AABE78"/>
<path d="M20.0458 14.8468L9.24597 14.0219L11.7014 13.1587L20.0458 14.8468Z" fill="#6E8255"/>
<path d="M17.2835 0.747559L11.7013 13.1588L10.4736 6.88602L17.2835 0.747559Z" fill="#AABE78"/>
<path d="M16.2666 30.5575L5.6969 25.8769L15.6527 22.8652C15.6527 22.8844 16.2474 30.2506 16.2666 30.5575Z" fill="#6E8255"/>
<path d="M16.267 30.5767L21.7532 37.7126L8.8241 30.6342L16.267 30.5767Z" fill="#3D4C3D"/>
<path d="M16.2669 30.5763L2.14846 30.7106L0 28.8115L16.2669 30.5763Z" fill="#002832"/>
<path d="M16.2669 30.5764L0 28.8116V26.2603L16.2669 30.5764Z" fill="#3D4C3D"/>
<path d="M16.2669 30.5762L0 26.2601L5.69726 25.8765L16.2669 30.5762Z" fill="#51604C"/>
<path d="M15.6529 22.884L4.08569 23.2869L4.25834 18.3569L15.6529 22.884Z" fill="#51604C"/>
<path d="M4.08569 23.2876L15.6529 22.8848L5.69704 25.8773L4.08569 23.2876Z" fill="#AABE78"/>
<path d="M10.9916 9.55225L11.7014 13.1586L9.24597 10.5689L10.9916 9.55225Z" fill="#6E8255"/>
<path d="M9.24597 10.5693L11.7014 13.159L9.24597 14.0222V10.5693Z" fill="#3D4C3D"/>
<path d="M10.4737 6.88623L10.9916 9.55262L9.24597 10.5693L10.4737 6.88623Z" fill="#6E8255"/>
<path d="M9.24629 10.5693V14.0222L4.25879 18.3575L9.24629 10.5693Z" fill="#6E8255"/>
<path d="M9.24608 10.5693L4.25859 18.3575L2.09094 15.8446L9.24608 10.5693Z" fill="#51604C"/>
<path d="M9.24576 10.5693L2.09062 15.8446L1.51514 14.3483L9.24576 10.5693Z" fill="#6E8255"/>
<path d="M5.69726 25.8772L0 26.2609L1.63053 24.3618L5.69726 25.8772Z" fill="#AABE78"/>
<path d="M5.69722 25.8768L4.08588 23.2871L1.63049 24.3613L5.69722 25.8768Z" fill="#6E8255"/>
<path d="M4.25859 18.3574L4.08594 23.2874L2.09094 19.3933L4.25859 18.3574Z" fill="#AABE78"/>
<path d="M2.09088 19.3931L4.08588 23.2872L1.63049 21.0044L2.09088 19.3931Z" fill="#3D4C3D"/>
<path d="M4.08574 23.2876L1.63036 24.3618L0.843872 22.8848L4.08574 23.2876Z" fill="#3D4C3D"/>
<path d="M4.08574 23.287L0.843872 22.8842L2.22502 21.5605L4.08574 23.287Z" fill="#AABE78"/>
</svg>
